<svg width="800" height="800" xmlns="http://www.w3.org/2000/svg">
  <!-- Background -->
  <rect width="800" height="800" fill="#1a1a1a"/>
  
  <!-- Header -->
  <text x="40" y="40" fill="#ff9500" font-size="18" font-weight="bold">DESIGN: 84.29%</text>
  <text x="40" y="65" fill="#4CAF50" font-size="14">Good</text>
  <text x="40" y="90" fill="#ffffff" font-size="14">Full details</text>
  
  <!-- Issues list -->
  <g transform="translate(40, 120)">
    <!-- Issue 1 -->
    <rect x="0" y="0" width="720" height="40" fill="#2a2a2a" stroke="#ff9500" stroke-width="1" rx="3"/>
    <text x="10" y="15" fill="#ffcc00" font-size="12">⚠️ well-understood-http-status-codes: 415 is not a well-understood HTTP status code</text>
    <text x="10" y="30" fill="#888888" font-size="10">415 is not a well-understood HTTP status code</text>
    <text x="630" y="25" fill="#888888" font-size="10">swagger.yaml</text>
    
    <!-- Issue 2 -->
    <rect x="0" y="50" width="720" height="40" fill="#2a2a2a" stroke="#ff9500" stroke-width="1" rx="3"/>
    <text x="10" y="65" fill="#ffcc00" font-size="12">⚠️ ensure-operations-summary: Missing the post.summary</text>
    <text x="10" y="80" fill="#888888" font-size="10">Missing the post.summary</text>
    <text x="630" y="75" fill="#888888" font-size="10">swagger.yaml</text>
    
    <!-- Issue 3 -->
    <rect x="0" y="100" width="720" height="40" fill="#2a2a2a" stroke="#ff9500" stroke-width="1" rx="3"/>
    <text x="10" y="115" fill="#ffcc00" font-size="12">⚠️ post-http-status-codes-collections: Missing the responses[401] http definition</text>
    <text x="10" y="130" fill="#888888" font-size="10">Missing the responses[401] http definition</text>
    <text x="630" y="125" fill="#888888" font-size="10">swagger.yaml</text>
    
    <!-- Issue 4 -->
    <rect x="0" y="150" width="720" height="40" fill="#2a2a2a" stroke="#ff9500" stroke-width="1" rx="3"/>
    <text x="10" y="165" fill="#ffcc00" font-size="12">⚠️ post-http-status-codes-collections: Missing the responses[403] http definition</text>
    <text x="10" y="180" fill="#888888" font-size="10">Missing the responses[403] http definition</text>
    <text x="630" y="175" fill="#888888" font-size="10">swagger.yaml</text>
    
    <!-- Issue 5 -->
    <rect x="0" y="200" width="720" height="40" fill="#2a2a2a" stroke="#ff9500" stroke-width="1" rx="3"/>
    <text x="10" y="215" fill="#ffcc00" font-size="12">⚠️ post-http-status-codes-collections: Missing the responses[500] http definition</text>
    <text x="10" y="230" fill="#888888" font-size="10">Missing the responses[500] http definition</text>
    <text x="630" y="225" fill="#888888" font-size="10">swagger.yaml</text>
    
    <!-- Issue 6 -->
    <rect x="0" y="250" width="720" height="40" fill="#2a2a2a" stroke="#ff9500" stroke-width="1" rx="3"/>
    <text x="10" y="265" fill="#ffcc00" font-size="12">⚠️ post-http-status-codes-collections: Missing the responses[503] http definition</text>
    <text x="10" y="280" fill="#888888" font-size="10">Missing the responses[503] http definition</text>
    <text x="630" y="275" fill="#888888" font-size="10">swagger.yaml</text>
    
    <!-- Issue 7 -->
    <rect x="0" y="300" width="720" height="40" fill="#2a2a2a" stroke="#ff9500" stroke-width="1" rx="3"/>
    <text x="10" y="315" fill="#ffcc00" font-size="12">⚠️ post-http-status-codes-collections: Missing the responses[504] http definition</text>
    <text x="10" y="330" fill="#888888" font-size="10">Missing the responses[504] http definition</text>
    <text x="630" y="325" fill="#888888" font-size="10">swagger.yaml</text>
    
    <!-- Issue 8 -->
    <rect x="0" y="350" width="720" height="40" fill="#2a2a2a" stroke="#ff9500" stroke-width="1" rx="3"/>
    <text x="10" y="365" fill="#ffcc00" font-size="12">⚠️ well-understood-http-status-codes: 406 is not a well-understood HTTP status code</text>
    <text x="10" y="380" fill="#888888" font-size="10">406 is not a well-understood HTTP status code</text>
    <text x="630" y="375" fill="#888888" font-size="10">swagger.yaml</text>
  </g>
  
  <!-- Optimistic button -->
  <rect x="650" y="20" width="100" height="30" fill="#ff9500" rx="5"/>
  <text x="700" y="40" fill="#000000" text-anchor="middle" font-size="12">Optimistic</text>
</svg>